# xmcd CD database file
#
# Track frame offsets:
#	150
#	35368
#	85914
#	119640
#	147436
#	172522
#	216062
#	259459
#	304753
#
# Disc length: 4628 seconds
#
# Revision: 0
# Processed by: cddbd v1.5.2PL0 Copyright (c) Steve Scherf et al.
# Submitted via: CDex 1.79
#
DISCID=7b121209
DTITLE=Barbara Thompson's Paraphernalia - A Cry From The Heart
DYEAR=1988
DGENRE=Jazz
TTITLE0=Joyride
TTITLE1=L'extreme Jonction
TTITLE2=A Cry From The Hearte
TTITLE3=Entre Les Trous De La Memoire
TTITLE4=Out To Lunch
TTITLE5=Close To The Edge
TTITLE6=Voices Behind Locked Doors
TTITLE7=Eastern Western Promise Part I
TTITLE8=Eastern Western Promise Part II
EXTD=YEAR: 1988
EXTT0=
EXTT1=
EXTT2=
EXTT3=
EXTT4=
EXTT5=
EXTT6=
EXTT7=
EXTT8=
PLAYORDER=
